<svg width="2519" height="182" xmlns="http://www.w3.org/2000/svg" xmlns:xlink="http://www.w3.org/1999/xlink" xml:space="preserve" overflow="hidden"><defs><clipPath id="clip0"><rect x="382" y="2275" width="2519" height="182"/></clipPath></defs><g clip-path="url(#clip0)" transform="translate(-382 -2275)"><text fill="#E9EBFC" font-family="Calibri,Calibri_MSFontService,sans-serif" font-weight="400" font-size="55" transform="matrix(1 0 0 1 415.59 2343)">If<tspan font-size="55" x="46.3833" y="0">you</tspan><tspan font-size="55" x="144.26" y="0">had</tspan><tspan font-size="55" x="243.925" y="0">a</tspan><tspan font-size="55" x="286.298" y="0">general</tspan><tspan font-size="55" x="468.05" y="0">description</tspan><tspan font-size="55" x="734.204" y="0">of</tspan><tspan font-size="55" x="796.079" y="0">a</tspan><tspan font-size="55" x="838.475" y="0">place’s</tspan><tspan font-size="55" x="1005.29" y="0">location,</tspan><tspan font-size="55" x="1214.58" y="0">but</tspan><tspan font-size="55" x="1306.25" y="0">didn’t</tspan><tspan font-size="55" x="1452.92" y="0">know</tspan><tspan font-size="55" x="1591.36" y="0">what</tspan><tspan font-size="55" x="1719.76" y="0">it</tspan><tspan font-size="55" x="1766.74" y="0">was</tspan><tspan font-size="55" x="1869.82" y="0">called,</tspan><tspan font-size="55" x="2030.35" y="0">what</tspan><tspan font-size="55" x="2158.75" y="0">sort</tspan><tspan font-size="55" x="2263.02" y="0">of</tspan><tspan font-size="55" x="2324.9" y="0">visual</tspan><tspan font-size="55" x="0" y="66">aid</tspan><tspan font-size="55" x="80.2083" y="66">would</tspan><tspan font-size="55" x="230.954" y="66">you</tspan><tspan font-size="55" x="325.417" y="66">normally</tspan><tspan font-size="55" x="535.104" y="66">use</tspan><tspan font-size="55" x="625.625" y="66">to</tspan><tspan font-size="55" x="685.254" y="66">figure</tspan><tspan font-size="55" x="827.177" y="66">it</tspan><tspan font-size="55" x="870.719" y="66">out?</tspan></text></g></svg>