<svg width="733" height="53" xmlns="http://www.w3.org/2000/svg" xmlns:xlink="http://www.w3.org/1999/xlink" xml:space="preserve" overflow="hidden"><defs><clipPath id="clip0"><rect x="273" y="333" width="733" height="53"/></clipPath></defs><g clip-path="url(#clip0)" transform="translate(-273 -333)"><text fill="#E9EBFC" font-family="Calibri,Calibri_MSFontService,sans-serif" font-weight="400" font-size="16" transform="translate(282.927 353)">Why<tspan font-size="16" x="33.0733" y="0">would</tspan><tspan font-size="16" x="76.9667" y="0">someone</tspan><tspan font-size="16" x="141.173" y="0">break</tspan><tspan font-size="16" x="181.5" y="0">into</tspan><tspan font-size="16" x="210.74" y="0">a</tspan><tspan font-size="16" x="222.113" y="0">place</tspan><tspan font-size="16" x="257.113" y="0">,</tspan><tspan font-size="16" x="264.32" y="0">and</tspan><tspan font-size="16" x="292.36" y="0">what</tspan><tspan font-size="16" x="328.753" y="0">words</tspan><tspan font-size="16" x="372.26" y="0">could</tspan><tspan font-size="16" x="411.507" y="0">be</tspan><tspan font-size="16" x="431.553" y="0">used</tspan><tspan font-size="16" x="466.267" y="0">to</tspan><tspan font-size="16" x="483.66" y="0">describe</tspan><tspan font-size="16" x="542.373" y="0">this</tspan><tspan font-size="16" x="569.753" y="0">act</tspan><tspan font-size="16" x="593.3" y="0">or</tspan><tspan font-size="16" x="611.013" y="0">the</tspan><tspan font-size="16" x="636.393" y="0">person</tspan><tspan font-size="16" x="684.833" y="0">who</tspan><tspan font-size="16" x="0" y="19">does</tspan><tspan font-size="16" x="34.8333" y="19">such</tspan><tspan font-size="16" x="68.3333" y="19">a</tspan><tspan font-size="16" x="79.6667" y="19">thing</tspan>?</text></g></svg>