<svg width="733" height="86" xmlns="http://www.w3.org/2000/svg" xmlns:xlink="http://www.w3.org/1999/xlink" xml:space="preserve" overflow="hidden"><defs><clipPath id="clip0"><rect x="273" y="317" width="733" height="86"/></clipPath></defs><g clip-path="url(#clip0)" transform="translate(-273 -317)"><text fill="#E9EBFC" font-family="Calibri,Calibri_MSFontService,sans-serif" font-weight="400" font-size="16" transform="translate(282.503 337)">Dumbledore’s<tspan font-size="16" x="94.9" y="0">favorite</tspan><tspan font-size="16" x="149.087" y="0">snack</tspan><tspan font-size="16" x="190.007" y="0">is</tspan><tspan font-size="16" x="204.427" y="0">probably</tspan><tspan font-size="16" x="266.087" y="0">Nachos</tspan>,<tspan font-size="16" x="322.507" y="0">since</tspan><tspan font-size="16" x="360.093" y="0">he</tspan><tspan font-size="16" x="380.847" y="0">mentions</tspan><tspan font-size="16" x="446.453" y="0">these</tspan><tspan font-size="16" x="486.873" y="0">as</tspan><tspan font-size="16" x="505.293" y="0">his</tspan><tspan font-size="16" x="528.047" y="0">top</tspan><tspan font-size="16" x="554.48" y="0">choice</tspan><tspan font-size="16" x="601.067" y="0">in</tspan><tspan font-size="16" x="617.487" y="0">a</tspan><tspan font-size="16" x="629.573" y="0">list</tspan><tspan font-size="16" x="652.813" y="0">of</tspan><tspan font-size="16" x="670.573" y="0">his</tspan><tspan font-size="16" x="693.333" y="0">all</tspan>-<tspan font-size="16" x="0" y="19">time</tspan><tspan font-size="16" x="33.5" y="19">favorite</tspan><tspan font-size="16" x="86.9333" y="19">snack</tspan><tspan font-size="16" x="127.1" y="19">foods</tspan><tspan font-size="16" x="163.267" y="19">.</tspan><tspan font-size="11" x="167.267" y="14">1</tspan><tspan font-size="14" x="0" y="53">1</tspan><tspan font-size="14" x="7" y="53">.</tspan><tspan font-size="14" x="24" y="53">/</tspan><tspan font-size="14" x="29" y="53">Comp</tspan><tspan font-size="14" x="62.6667" y="53">.</tspan><tspan font-size="14" x="66.1667" y="53">hog</tspan><tspan font-size="14" x="87.5" y="53">.</tspan><tspan font-size="14" x="91" y="53">net</tspan><tspan font-size="14" x="110" y="53">/</tspan><tspan font-size="14" x="115.333" y="53">albusd</tspan><tspan font-size="14" x="152.667" y="53">-</tspan><tspan font-size="14" x="157" y="53">pc</tspan><tspan font-size="14" x="170" y="53">/</tspan><tspan font-size="14" x="175" y="53">#</tspan><tspan font-size="14" x="182" y="53">myfavoritesnacksdoc</tspan></text></g></svg>