<svg width="2520" height="542" xmlns="http://www.w3.org/2000/svg" xmlns:xlink="http://www.w3.org/1999/xlink" xml:space="preserve" overflow="hidden"><defs><clipPath id="clip0"><rect x="1027" y="496" width="2520" height="542"/></clipPath></defs><g clip-path="url(#clip0)" transform="translate(-1027 -496)"><text fill="#E9EBFC" font-family="Calibri,Calibri_MSFontService,sans-serif" font-weight="400" font-size="55" transform="matrix(1 0 0 1 1060.48 564)">A<tspan font-size="55" x="51.7" y="0">snidget</tspan><tspan font-size="55" x="233.842" y="0">flew</tspan><tspan font-size="55" x="349.433" y="0">by</tspan><tspan font-size="55" x="422.056" y="0">Gryffindor</tspan><tspan font-size="55" x="671.435" y="0">tower</tspan><tspan font-size="55" x="803.71" y="0">:</tspan><tspan font-size="55" x="838.223" y="0">multiple</tspan><tspan font-size="55" x="1042.89" y="0">students</tspan><tspan font-size="55" x="1255.03" y="0">reporting</tspan><tspan font-size="55" x="1482.46" y="0">seeing</tspan><tspan font-size="55" x="1645.88" y="0">a</tspan><tspan font-size="55" x="1691.85" y="0">flying</tspan><tspan font-size="55" x="1832.37" y="0">creature</tspan><tspan font-size="55" x="2039.68" y="0">of</tspan><tspan font-size="55" x="2105.15" y="0">some</tspan><tspan font-size="55" x="2247.39" y="0">sort,</tspan><tspan font-size="55" x="2369.01" y="0">and</tspan><tspan font-size="55" x="0" y="66">Lavender</tspan><tspan font-size="55" x="223.323" y="66">claimed</tspan><tspan font-size="55" x="418.298" y="66">that</tspan><tspan font-size="55" x="529.123" y="66">it</tspan><tspan font-size="55" x="579.723" y="66">swooped</tspan><tspan font-size="55" x="803.138" y="66">by</tspan><tspan font-size="55" x="875.806" y="66">her</tspan><tspan font-size="55" x="970.521" y="66">window</tspan><tspan font-size="55" x="1168.15" y="66">in</tspan><tspan font-size="55" x="1229.09" y="66">the</tspan><tspan font-size="55" x="1323.25" y="66">girl</tspan><tspan font-size="55" x="1412.84" y="66">dormitory</tspan><tspan font-size="37" x="1637.17" y="49">1</tspan><tspan font-size="55" x="1655.5" y="66">,</tspan><tspan font-size="55" x="1688.94" y="66">was</tspan><tspan font-size="55" x="1795.66" y="66">quite</tspan><tspan font-size="55" x="1930.48" y="66">small,</tspan><tspan font-size="55" x="2081.36" y="66">had</tspan><tspan font-size="55" x="2184.69" y="66">glowing</tspan><tspan font-size="55" x="2378.34" y="66">red</tspan><tspan font-size="55" x="0" y="132">eyes</tspan><tspan font-size="37" x="100.398" y="115">2</tspan><tspan font-size="55" x="118.731" y="132">,</tspan><tspan font-size="55" x="145.085" y="132">was</tspan><tspan font-size="55" x="244.727" y="132">hovering</tspan><tspan font-size="55" x="452.49" y="132">and</tspan><tspan font-size="55" x="548.74" y="132">had</tspan><tspan font-size="55" x="644.99" y="132">a</tspan><tspan font-size="55" x="683.948" y="132">round</tspan><tspan font-size="55" x="829.721" y="132">shape</tspan><tspan font-size="37" x="962.638" y="115">3</tspan><tspan font-size="55" x="980.971" y="132">.</tspan><tspan font-size="55" x="1007.33" y="132">This</tspan><tspan font-size="55" x="1109.88" y="132">all</tspan><tspan font-size="55" x="1174.04" y="132">fits</tspan><tspan font-size="55" x="1255.97" y="132">the</tspan><tspan font-size="55" x="1343.05" y="132">description</tspan><tspan font-size="55" x="1605.77" y="132">of</tspan><tspan font-size="55" x="1664.21" y="132">a</tspan><tspan font-size="55" x="1703.17" y="132">snidget</tspan><tspan font-size="55" x="1865.69" y="132">.</tspan><tspan font-size="37" x="1879.44" y="115">4</tspan><tspan font-size="48" x="0" y="258">1.</tspan><tspan font-size="48" x="82.5" y="258">/News</tspan><tspan font-size="48" x="209.115" y="258">.</tspan><tspan font-size="48" x="221.146" y="258">hog</tspan><tspan font-size="48" x="294.479" y="258">.</tspan><tspan font-size="48" x="306.51" y="258">net/</tspan><tspan font-size="48" x="390.156" y="258">Strange_Creature_Spotted</tspan><tspan font-size="48" x="913.802" y="258">/</tspan><tspan font-size="48" x="0" y="316">2.</tspan><tspan font-size="48" x="82.5" y="316">/Floochat</tspan><tspan font-size="48" x="269.271" y="316">.</tspan><tspan font-size="48" x="281.302" y="316">hog</tspan><tspan font-size="48" x="354.635" y="316">.</tspan><tspan font-size="48" x="366.667" y="316">net/</tspan><tspan font-size="48" x="450.313" y="316">lavenderb</tspan><tspan font-size="48" x="646.25" y="316">-</tspan><tspan font-size="48" x="661.146" y="316">lunal</tspan><tspan font-size="48" x="756.25" y="316">/</tspan><tspan font-size="48" x="0" y="374">3.</tspan><tspan font-size="48" x="82.5" y="374">/Floochat</tspan><tspan font-size="48" x="269.271" y="374">.</tspan><tspan font-size="48" x="281.302" y="374">hog</tspan><tspan font-size="48" x="354.635" y="374">.</tspan><tspan font-size="48" x="366.667" y="374">net/</tspan><tspan font-size="48" x="450.313" y="374">parvatip</tspan><tspan font-size="48" x="611.875" y="374">-</tspan><tspan font-size="48" x="626.771" y="374">lavenderb</tspan><tspan font-size="48" x="822.708" y="374">/</tspan><tspan font-size="48" x="0" y="431">4.</tspan><tspan font-size="48" x="82.5" y="431">/Books</tspan><tspan font-size="48" x="218.281" y="431">.</tspan><tspan font-size="48" x="230.313" y="431">hog</tspan><tspan font-size="48" x="303.646" y="431">.</tspan><tspan font-size="48" x="315.677" y="431">net/</tspan><tspan font-size="48" x="399.323" y="431">Fantastic_Beasts</tspan><tspan font-size="48" x="726.458" y="431">/SNIDGET/</tspan></text></g></svg>