<svg width="2520" height="361" xmlns="http://www.w3.org/2000/svg" xmlns:xlink="http://www.w3.org/1999/xlink" xml:space="preserve" overflow="hidden"><defs><clipPath id="clip0"><rect x="1027" y="496" width="2520" height="361"/></clipPath></defs><g clip-path="url(#clip0)" transform="translate(-1027 -496)"><text fill="#E9EBFC" font-family="Calibri,Calibri_MSFontService,sans-serif" font-weight="400" font-size="55" transform="matrix(1 0 0 1 1060.48 564)">Hagrid<tspan font-size="55" x="168.46" y="0">seems</tspan><tspan font-size="55" x="332.91" y="0">to</tspan><tspan font-size="55" x="401.729" y="0">prefer</tspan><tspan font-size="55" x="559.006" y="0">Ethiopian</tspan><tspan font-size="55" x="792.138" y="0">Roast,</tspan><tspan font-size="55" x="951.408" y="0">as</tspan><tspan font-size="55" x="1021.33" y="0">this</tspan><tspan font-size="55" x="1124.47" y="0">is</tspan><tspan font-size="55" x="1180.64" y="0">the</tspan><tspan font-size="55" x="1276.92" y="0">type</tspan><tspan font-size="55" x="1397.83" y="0">of</tspan><tspan font-size="55" x="1465.45" y="0">coffee</tspan><tspan font-size="55" x="1625.82" y="0">that</tspan><tspan font-size="55" x="1738.8" y="0">he</tspan><tspan font-size="55" x="1816.76" y="0">requests</tspan><tspan font-size="55" x="2030.3" y="0">from</tspan><tspan font-size="55" x="2160.08" y="0">Dobby</tspan><tspan font-size="55" x="2326.57" y="0">in</tspan><tspan font-size="55" x="2389.64" y="0">his</tspan><tspan font-size="55" x="0" y="66">grocery</tspan><tspan font-size="55" x="180.423" y="66">list</tspan><tspan font-size="37" x="245.117" y="49">1</tspan><tspan font-size="55" x="276.054" y="66">(stock</tspan><tspan font-size="55" x="422.148" y="66">code</tspan><tspan font-size="55" x="543.148" y="66">#</tspan>4756<tspan font-size="37" x="682.94" y="49">2</tspan><tspan font-size="55" x="701.273" y="66">)</tspan><tspan font-size="55" x="717.888" y="66">.</tspan><tspan font-size="48" x="0" y="192">1.</tspan><tspan font-size="48" x="82.5" y="192">/EOwl</tspan><tspan font-size="48" x="201.667" y="192">.</tspan><tspan font-size="48" x="213.698" y="192">hog</tspan><tspan font-size="48" x="287.031" y="192">.</tspan><tspan font-size="48" x="299.063" y="192">net/</tspan><tspan font-size="48" x="382.708" y="192">RE_Groceries</tspan><tspan font-size="48" x="643.958" y="192">/</tspan><tspan font-size="48" x="0" y="250">2.</tspan><tspan font-size="48" x="82.5" y="250">/EOwl</tspan><tspan font-size="48" x="201.667" y="250">.</tspan><tspan font-size="48" x="213.698" y="250">hog</tspan><tspan font-size="48" x="287.031" y="250">.</tspan><tspan font-size="48" x="299.063" y="250">net/</tspan><tspan font-size="48" x="382.708" y="250">Stock_Codes</tspan><tspan font-size="48" x="631.927" y="250">/</tspan></text></g></svg>