<svg width="2520" height="1343" xmlns="http://www.w3.org/2000/svg" xmlns:xlink="http://www.w3.org/1999/xlink" xml:space="preserve" overflow="hidden"><defs><clipPath id="clip0"><rect x="1027" y="496" width="2520" height="1343"/></clipPath></defs><g clip-path="url(#clip0)" transform="translate(-1027 -496)"><text fill="#E9EBFC" font-family="Calibri,Calibri_MSFontService,sans-serif" font-weight="400" font-size="55" transform="matrix(1 0 0 1 1060.48 564)">For<tspan font-size="55" x="88.6875" y="0">a</tspan><tspan font-size="55" x="131.152" y="0">number</tspan><tspan font-size="55" x="323.721" y="0">of</tspan><tspan font-size="55" x="385.665" y="0">years</tspan><tspan font-size="55" x="519.337" y="0">now,</tspan><tspan font-size="55" x="641.667" y="0">work</tspan><tspan font-size="55" x="770.138" y="0">has</tspan><tspan font-size="55" x="863.019" y="0">been</tspan><tspan font-size="55" x="991.421" y="0">proceeding</tspan><tspan font-size="55" x="1257.58" y="0">in</tspan><tspan font-size="55" x="1314.94" y="0">order</tspan><tspan font-size="55" x="1453.49" y="0">to</tspan><tspan font-size="55" x="1516.65" y="0">bring</tspan><tspan font-size="55" x="1647.36" y="0">perfection</tspan><tspan font-size="55" x="1893.58" y="0">to</tspan><tspan font-size="55" x="1956.74" y="0">the</tspan><tspan font-size="55" x="2047.35" y="0">crudely</tspan><tspan font-size="55" x="2227.91" y="0">conceived</tspan><tspan font-size="55" x="0" y="66">idea</tspan><tspan font-size="55" x="121.962" y="66">of</tspan><tspan font-size="55" x="194.654" y="66">a</tspan><tspan font-size="55" x="247.867" y="66">transmission</tspan><tspan font-size="55" x="558.342" y="66">that</tspan><tspan font-size="55" x="676.362" y="66">would</tspan><tspan font-size="55" x="841.363" y="66">not</tspan><tspan font-size="55" x="944.419" y="66">only</tspan><tspan font-size="55" x="1066.38" y="66">supply</tspan><tspan font-size="55" x="1238.19" y="66">inverse</tspan><tspan font-size="55" x="1424.22" y="66">reactive</tspan><tspan font-size="55" x="1629.15" y="66">current</tspan><tspan font-size="55" x="1819.19" y="66">for</tspan><tspan font-size="55" x="1909.65" y="66">use</tspan><tspan font-size="55" x="2014.42" y="66">in</tspan><tspan font-size="55" x="2082.53" y="66">unilateral</tspan><tspan font-size="55" x="2319.74" y="66">phase</tspan><tspan font-size="55" x="0" y="132">detractors,</tspan><tspan font-size="55" x="276.031" y="132">but</tspan><tspan font-size="55" x="385.367" y="132">would</tspan><tspan font-size="55" x="557.219" y="132">also</tspan><tspan font-size="55" x="680.877" y="132">be</tspan><tspan font-size="55" x="770.733" y="132">capable</tspan><tspan font-size="55" x="977.579" y="132">of</tspan><tspan font-size="55" x="1057.12" y="132">automatically</tspan><tspan font-size="55" x="1392.97" y="132">synchronizing</tspan><tspan font-size="55" x="1730.14" y="132">cardinal</tspan><tspan font-size="55" x="1940.22" y="132">grammeters</tspan>.<tspan font-size="55" x="2257.98" y="132">Such</tspan><tspan font-size="55" x="2397.66" y="132">an</tspan><tspan font-size="55" x="0" y="198">instrument</tspan><tspan font-size="55" x="260.608" y="198">is</tspan><tspan font-size="55" x="309.215" y="198">the</tspan><tspan font-size="55" x="397.925" y="198">turbo</tspan><tspan font-size="55" x="535.906" y="198">encabulator</tspan><tspan font-size="55" x="797.592" y="198">.</tspan><tspan font-size="37" x="811.342" y="181">1</tspan><tspan font-size="55" x="843.906" y="198">The</tspan><tspan font-size="55" x="941.21" y="198">most</tspan><tspan font-size="55" x="1068.26" y="198">ubiquitous</tspan><tspan font-size="55" x="1319.72" y="198">appliance</tspan><tspan font-size="55" x="1548.8" y="198">of</tspan><tspan font-size="55" x="1608.86" y="198">the</tspan><tspan font-size="55" x="1697.58" y="198">turbo</tspan><tspan font-size="55" x="1835.56" y="198">encabulator</tspan><tspan font-size="55" x="2117" y="198">is</tspan><tspan font-size="55" x="2165.6" y="198">the</tspan><tspan font-size="55" x="2254.31" y="198">Rockwell</tspan><tspan font-size="55" x="0" y="264">Micro</tspan><tspan font-size="55" x="144.787" y="264">Quad</tspan><tspan font-size="55" x="280.156" y="264">Serial</tspan><tspan font-size="55" x="417.817" y="264">Turbo</tspan><tspan font-size="55" x="561.229" y="264">Encabulator</tspan>.<tspan font-size="55" x="850.575" y="264">Now</tspan><tspan font-size="55" x="969.123" y="264">basically</tspan><tspan font-size="55" x="1172.21" y="264">the</tspan><tspan font-size="55" x="1261.17" y="264">only</tspan><tspan font-size="55" x="1370.76" y="264">new</tspan><tspan font-size="55" x="1480.65" y="264">principle</tspan><tspan font-size="55" x="1688.78" y="264">involved</tspan><tspan font-size="55" x="1889.8" y="264">in</tspan><tspan font-size="55" x="1945.53" y="264">the</tspan><tspan font-size="55" x="2034.5" y="264">RM</tspan><tspan font-size="55" x="2125.75" y="264">Quad</tspan><tspan font-size="55" x="2261.12" y="264">Serial</tspan><tspan font-size="55" x="2398.8" y="264">TE</tspan><tspan font-size="55" x="0" y="330">is</tspan><tspan font-size="55" x="47.1395" y="330">that</tspan><tspan font-size="55" x="151.067" y="330">instead</tspan><tspan font-size="55" x="326.471" y="330">of</tspan><tspan font-size="55" x="385.069" y="330">power</tspan><tspan font-size="55" x="540.948" y="330">being</tspan><tspan font-size="55" x="676.89" y="330">generated</tspan><tspan font-size="55" x="916.14" y="330">by</tspan><tspan font-size="55" x="981.911" y="330">the</tspan><tspan font-size="55" x="1069.15" y="330">relative</tspan><tspan font-size="55" x="1248.59" y="330">motion</tspan><tspan font-size="55" x="1423.49" y="330">of</tspan><tspan font-size="55" x="1482.09" y="330">conductors</tspan><tspan font-size="55" x="1743.29" y="330">and</tspan><tspan font-size="55" x="1839.7" y="330">fluxes,</tspan><tspan font-size="55" x="1995.97" y="330">it</tspan><tspan font-size="55" x="2039.68" y="330">is</tspan><tspan font-size="55" x="2086.81" y="330">produced</tspan><tspan font-size="55" x="2312.38" y="330">by</tspan><tspan font-size="55" x="2378.18" y="330">the</tspan><tspan font-size="55" x="0" y="396">modial</tspan><tspan font-size="55" x="170.89" y="396">interaction</tspan><tspan font-size="55" x="430.65" y="396">of</tspan><tspan font-size="55" x="493.831" y="396">magneto</tspan>-<tspan font-size="55" x="709.569" y="396">reluctance</tspan><tspan font-size="55" x="960.988" y="396">and</tspan><tspan font-size="55" x="1061.98" y="396">capacitive</tspan><tspan font-size="55" x="1302.35" y="396">diractance</tspan>.<tspan font-size="37" x="1548.64" y="379">2</tspan><tspan font-size="55" x="1584.34" y="396">In</tspan><tspan font-size="55" x="1644.11" y="396">the</tspan><tspan font-size="55" x="1735.96" y="396">original</tspan><tspan font-size="55" x="1920.05" y="396">machine,</tspan><tspan font-size="55" x="2142.53" y="396">the</tspan><tspan font-size="55" x="2234.38" y="396">malleable</tspan><tspan font-size="55" x="0" y="462">logarithmic</tspan><tspan font-size="55" x="264.39" y="462">casing</tspan><tspan font-size="55" x="415.342" y="462">surmounted</tspan><tspan font-size="55" x="701.433" y="462">the</tspan><tspan font-size="55" x="788.677" y="462">pre</tspan>-<tspan font-size="55" x="879.61" y="462">famulated</tspan><tspan font-size="55" x="1119.36" y="462">amulite</tspan><tspan font-size="55" x="1288.92" y="462">,</tspan><tspan font-size="55" x="1315.44" y="462">and</tspan><tspan font-size="55" x="1411.85" y="462">was</tspan><tspan font-size="55" x="1511.65" y="462">set</tspan><tspan font-size="55" x="1591.72" y="462">up</tspan><tspan font-size="55" x="1661.78" y="462">in</tspan><tspan font-size="55" x="1715.79" y="462">such</tspan><tspan font-size="55" x="1831.13" y="462">a</tspan><tspan font-size="55" x="1870.28" y="462">way</tspan><tspan font-size="55" x="1971.93" y="462">that</tspan><tspan font-size="55" x="2075.88" y="462">the</tspan><tspan font-size="55" x="2163.15" y="462">two</tspan><tspan font-size="55" x="2262.52" y="462">spurving</tspan><tspan font-size="55" x="0" y="528">bearings</tspan><tspan font-size="55" x="217.41" y="528">were</tspan><tspan font-size="55" x="356.835" y="528">in</tspan><tspan font-size="55" x="425.288" y="528">a</tspan><tspan font-size="55" x="478.844" y="528">direct</tspan><tspan font-size="55" x="634.792" y="528">line</tspan><tspan font-size="55" x="743.348" y="528">with</tspan><tspan font-size="55" x="869.665" y="528">the</tspan><tspan font-size="55" x="971.346" y="528">panametric</tspan><tspan font-size="55" x="1253.2" y="528">fan</tspan><tspan font-size="55" x="1323.74" y="528">.</tspan><tspan font-size="55" x="1364.69" y="528">The</tspan><tspan font-size="55" x="1474.96" y="528">latter</tspan><tspan font-size="55" x="1622.32" y="528">consisted</tspan><tspan font-size="55" x="1859.83" y="528">simply</tspan><tspan font-size="55" x="2031.4" y="528">of</tspan><tspan font-size="55" x="2104.44" y="528">six</tspan><tspan font-size="55" x="2190.1" y="528">hydrocoptic</tspan><tspan font-size="55" x="0" y="594">marzlevanes</tspan><tspan font-size="55" x="279.079" y="594">,</tspan><tspan font-size="55" x="308.298" y="594">so</tspan><tspan font-size="55" x="374.756" y="594">fitted</tspan><tspan font-size="55" x="510.881" y="594">to</tspan><tspan font-size="55" x="573.375" y="594">the</tspan><tspan font-size="55" x="663.323" y="594">ambifacient</tspan><tspan font-size="55" x="942.471" y="594">lunar</tspan><tspan font-size="55" x="1073.1" y="594">waneshaft</tspan><tspan font-size="55" x="1321.38" y="594">that</tspan><tspan font-size="55" x="1428.03" y="594">side</tspan><tspan font-size="55" x="1534.04" y="594">fumbling</tspan><tspan font-size="55" x="1747.19" y="594">was</tspan><tspan font-size="55" x="1849.72" y="594">effectively</tspan><tspan font-size="55" x="2094.33" y="594">prevented</tspan><tspan font-size="55" x="2322.01" y="594">.</tspan><tspan font-size="37" x="2335.76" y="577">3</tspan><tspan font-size="55" x="2369.58" y="594">The</tspan><tspan font-size="55" x="0" y="660">main</tspan><tspan font-size="55" x="131.817" y="660">winding</tspan><tspan font-size="55" x="328.373" y="660">was</tspan><tspan font-size="55" x="435.508" y="660">of</tspan><tspan font-size="55" x="501.44" y="660">the</tspan><tspan font-size="55" x="596.017" y="660">normal</tspan><tspan font-size="55" x="775.958" y="660">lotus</tspan>-<tspan font-size="55" x="903.146" y="660">o</tspan>-<tspan font-size="55" x="948.979" y="660">delta</tspan><tspan font-size="55" x="1081.85" y="660">type</tspan><tspan font-size="55" x="1201.09" y="660">placed</tspan><tspan font-size="55" x="1368.45" y="660">in</tspan><tspan font-size="55" x="1429.82" y="660">panendermic</tspan><tspan font-size="55" x="1744.99" y="660">semi</tspan><tspan font-size="55" x="1850.98" y="660">-</tspan><tspan font-size="55" x="1867.59" y="660">boloid</tspan><tspan font-size="55" x="2028.65" y="660">slots</tspan><tspan font-size="55" x="2152.47" y="660">of</tspan><tspan font-size="55" x="2218.43" y="660">the</tspan><tspan font-size="55" x="2313.03" y="660">stator,</tspan><tspan font-size="55" x="0" y="726">every</tspan><tspan font-size="55" x="138.508" y="726">seventh</tspan><tspan font-size="55" x="330.092" y="726">conductor</tspan><tspan font-size="55" x="573.558" y="726">being</tspan><tspan font-size="55" x="712.594" y="726">connected</tspan><tspan font-size="55" x="962.867" y="726">by</tspan><tspan font-size="55" x="1031.73" y="726">a</tspan><tspan font-size="55" x="1073.97" y="726">non</tspan><tspan font-size="55" x="1160.48" y="726">-</tspan><tspan font-size="55" x="1177.09" y="726">reversible</tspan><tspan font-size="55" x="1411.07" y="726">tremie</tspan><tspan font-size="55" x="1575.18" y="726">pipe</tspan><tspan font-size="55" x="1688.45" y="726">to</tspan><tspan font-size="55" x="1751.36" y="726">the</tspan><tspan font-size="55" x="1841.72" y="726">differential</tspan><tspan font-size="55" x="2101.39" y="726">girdle</tspan><tspan font-size="55" x="2242.56" y="726">spring</tspan><tspan font-size="55" x="2394.79" y="726">on</tspan><tspan font-size="55" x="0" y="792">the</tspan><tspan font-size="55" x="87.0833" y="792">“up”</tspan><tspan font-size="55" x="202.813" y="792">end</tspan><tspan font-size="55" x="300.208" y="792">of</tspan><tspan font-size="55" x="358.669" y="792">the</tspan><tspan font-size="55" x="445.775" y="792">grammeters</tspan><tspan font-size="55" x="716.1" y="792">.</tspan><tspan font-size="55" x="742.477" y="792">The</tspan><tspan font-size="55" x="838.177" y="792">turbo</tspan><tspan font-size="55" x="974.554" y="792">encabulator</tspan><tspan font-size="55" x="1254.39" y="792">has</tspan><tspan font-size="55" x="1343.79" y="792">now</tspan><tspan font-size="55" x="1453.6" y="792">reached</tspan><tspan font-size="55" x="1646.54" y="792">a</tspan><tspan font-size="55" x="1685.52" y="792">high</tspan><tspan font-size="55" x="1793.83" y="792">level</tspan><tspan font-size="55" x="1910.49" y="792">of</tspan><tspan font-size="55" x="1968.95" y="792">development,</tspan><tspan font-size="55" x="2291.37" y="792">and</tspan><tspan font-size="55" x="2387.64" y="792">it’s</tspan><tspan font-size="55" x="0" y="858">being</tspan><tspan font-size="55" x="140.662" y="858">successfully</tspan><tspan font-size="55" x="421.185" y="858">used</tspan><tspan font-size="55" x="545.256" y="858">in</tspan><tspan font-size="55" x="604.015" y="858">the</tspan><tspan font-size="55" x="696.002" y="858">operation</tspan><tspan font-size="55" x="931.31" y="858">of</tspan><tspan font-size="55" x="994.652" y="858">novertrunnions</tspan>.<tspan font-size="55" x="1369.45" y="858">Moreover,</tspan><tspan font-size="55" x="1617.34" y="858">whenever</tspan><tspan font-size="55" x="1856.91" y="858">a</tspan><tspan font-size="55" x="1900.78" y="858">forescent</tspan><tspan font-size="55" x="2127.88" y="858">skor</tspan><tspan font-size="55" x="2238.64" y="858">motion</tspan><tspan font-size="55" x="2418.28" y="858">is</tspan><tspan font-size="55" x="0" y="924">required,</tspan><tspan font-size="55" x="217.823" y="924">it</tspan><tspan font-size="55" x="262.946" y="924">may</tspan><tspan font-size="55" x="371.204" y="924">also</tspan><tspan font-size="55" x="475.337" y="924">be</tspan><tspan font-size="55" x="545.669" y="924">employed</tspan><tspan font-size="55" x="781.756" y="924">in</tspan><tspan font-size="55" x="837.192" y="924">conjunction</tspan><tspan font-size="55" x="1115.03" y="924">with</tspan><tspan font-size="55" x="1228.33" y="924">a</tspan><tspan font-size="55" x="1268.87" y="924">drawn</tspan><tspan font-size="55" x="1423.65" y="924">reciprocation</tspan><tspan font-size="55" x="1733.16" y="924">dingle</tspan><tspan font-size="55" x="1883.13" y="924">arm,</tspan><tspan font-size="55" x="2000.44" y="924">to</tspan><tspan font-size="55" x="2061.65" y="924">reduce</tspan><tspan font-size="55" x="2229.79" y="924">sinusoidal</tspan><tspan font-size="55" x="0" y="990">repleneration</tspan><tspan font-size="55" x="303.004" y="990">.</tspan><tspan font-size="37" x="316.754" y="973">2</tspan><tspan font-size="48" x="0" y="1116">1.</tspan><tspan font-size="48" x="82.5" y="1116">/EOwl</tspan><tspan font-size="48" x="201.667" y="1116">.</tspan><tspan font-size="48" x="213.698" y="1116">hog</tspan><tspan font-size="48" x="287.031" y="1116">.</tspan><tspan font-size="48" x="299.063" y="1116">net/</tspan><tspan font-size="48" x="382.708" y="1116">Extra_Credit</tspan><tspan font-size="48" x="625.052" y="1116">/</tspan><tspan font-size="48" x="0" y="1174">2.</tspan><tspan font-size="48" x="82.5" y="1174">/Comp</tspan><tspan font-size="48" x="215.417" y="1174">.</tspan><tspan font-size="48" x="227.448" y="1174">hog</tspan><tspan font-size="48" x="300.781" y="1174">.</tspan><tspan font-size="48" x="312.813" y="1174">net/</tspan><tspan font-size="48" x="396.458" y="1174">hermioneg</tspan><tspan font-size="48" x="609.01" y="1174">-</tspan><tspan font-size="48" x="623.906" y="1174">pc/</tspan><tspan font-size="48" x="688.073" y="1174">encabulatordoc</tspan><tspan font-size="48" x="0" y="1232">3.</tspan><tspan font-size="48" x="82.5" y="1232">/Floochat</tspan><tspan font-size="48" x="269.271" y="1232">.</tspan><tspan font-size="48" x="281.302" y="1232">hog</tspan><tspan font-size="48" x="354.635" y="1232">.</tspan><tspan font-size="48" x="366.667" y="1232">net/</tspan><tspan font-size="48" x="450.313" y="1232">hermioneg</tspan><tspan font-size="48" x="662.865" y="1232">-</tspan><tspan font-size="48" x="677.76" y="1232">angelinaj</tspan><tspan font-size="48" x="854.219" y="1232">/</tspan></text></g></svg>